#!OML:ASF F:\VICON\USERDATA\INSTALL\rory3\rory3.ASF
:FULLY-SPECIFIED
:DEGREES
715
root 0.131719 17.9572 -0.964657 2.14494 -7.69861 2.72933
lowerback 0.0615698 -1.63724 -4.92778
upperback 0.773377 -2.18047 1.95264
thorax 1.02335 -1.14005 4.75907
lowerneck -18.7857 0.632749 -10.3231
upperneck 10.6067 2.44614 6.9879
head 6.05166 1.35057 4.18137
rclavicle -4.27884e-014 1.19271e-014
rhumerus -34.0208 -6.69339 -77.0404
rradius 34.3313
rwrist 19.569
rhand -22.588 7.65263
rfingers 7.12502
rthumb 3.84092 -22.2925
lclavicle -4.27884e-014 1.19271e-014
lhumerus 23.7115 -17.6696 66.3136
lradius 109.427
lwrist 0.855144
lhand -27.8423 28.8113
lfingers 7.12502
lthumb -1.23358 58.7875
rfemur -8.92251 6.56961 12.7605
rtibia 26.7045
rfoot -17.0703 -3.20179
rtoes 3.60945
lfemur -1.01802 -2.2127 -23.6311
ltibia 13.4457
lfoot -10.3908 3.43851
ltoes -11.4599
716
root 0.134041 17.9586 -0.970469 2.18175 -7.70972 2.72846
lowerback 0.0908908 -1.64537 -4.91653
upperback 0.773748 -2.19278 1.96076
thorax 1.00863 -1.14578 4.76186
lowerneck -18.6489 0.60702 -10.3773
upperneck 10.755 2.41705 6.92904
head 6.0796 1.32459 4.16887
rclavicle -1.83876e-014 3.18055e-015
rhumerus -33.9846 -6.59679 -77.0783
rradius 34.3015
rwrist 19.5114
rhand -22.774 7.38075
rfingers 7.12502
rthumb 3.66136 -22.5675
lclavicle -1.83876e-014 3.18055e-015
lhumerus 23.0349 -18.076 66.8053
lradius 109.64
lwrist 0.881326
lhand -27.8003 28.9618
lfingers 7.12502
lthumb -1.19303 58.9382
rfemur -8.99922 6.56784 12.7525
rtibia 26.7086
rfoot -17.0388 -3.21954
rtoes 3.46791
lfemur -1.13618 -2.08433 -23.6202
ltibia 13.5365
lfoot -10.4276 3.33718
ltoes -11.4707
717
root 0.135389 17.9606 -0.977298 2.22534 -7.72839 2.67875
lowerback 0.144067 -1.6297 -4.89302
upperback 0.769961 -2.17472 1.99679
thorax 0.973245 -1.1357 4.78809
lowerneck -18.57 0.604398 -10.5057
upperneck 11.0109 2.4314 6.93995
head 6.14552 1.32105 4.19908
rclavicle -4.80065e-014 -7.15625e-015
rhumerus -33.9636 -6.60826 -77.0526
rradius 34.2522
rwrist 19.4849
rhand -22.8047 7.29408
rfingers 7.12502
rthumb 3.6317 -22.6547
lclavicle -4.80065e-014 -7.15625e-015
lhumerus 22.3662 -18.5187 67.3501
lradius 109.858
lwrist 1.00305
lhand -27.7679 28.9833
lfingers 7.12502
lthumb -1.16178 58.9599
rfemur -9.07974 6.56555 12.8032
rtibia 26.7088
rfoot -16.9976 -3.24284
rtoes 3.36365
lfemur -1.23927 -1.93147 -23.5491
ltibia 13.6392
lfoot -10.4845 3.18378
ltoes -11.5286
718
root 0.135143 17.9615 -0.983845 2.23622 -7.73256 2.68074
lowerback 0.22167 -1.62272 -4.93712
upperback 0.769149 -2.16896 2.01128
thorax 0.930467 -1.13203 4.8307
lowerneck -18.3817 0.594007 -10.6008
upperneck 11.2326 2.4185 6.93289
head 6.18573 1.30328 4.21262
rclavicle 3.52843e-014 3.18055e-015
rhumerus -34.0189 -6.61253 -77.0471
rradius 34.32
rwrist 19.4519
rhand -22.8203 7.48408
rfingers 7.12502
rthumb 3.61663 -22.465
lclavicle 3.52843e-014 3.18055e-015
lhumerus 21.6666 -18.9768 67.856
lradius 110.121
lwrist 1.04455
lhand -27.69 29.2646
lfingers 7.12502
lthumb -1.08651 59.2416
rfemur -9.10921 6.60555 12.8009
rtibia 26.6991
rfoot -17.0202 -3.21079
rtoes 3.89298
lfemur -1.30606 -1.90188 -23.5431
ltibia 13.7109
lfoot -10.4786 3.1455
ltoes -11.5922
719
root 0.136865 17.962 -0.989666 2.24117 -7.71207 2.68282
lowerback 0.289123 -1.62486 -4.93733
upperback 0.798153 -2.17454 2.00388
thorax 0.922904 -1.13526 4.82461
lowerneck -18.1967 0.574667 -10.5396
upperneck 11.3561 2.37707 6.78784
head 6.20156 1.26854 4.15047
rclavicle -7.15625e-015 1.82882e-014
rhumerus -34.0408 -6.60755 -77.0751
rradius 34.4256
rwrist 19.3801
rhand -22.9177 7.58839
rfingers 7.12502
rthumb 3.52262 -22.3622
lclavicle -7.15625e-015 1.82882e-014
lhumerus 21.0169 -19.3797 68.2869
lradius 110.357
lwrist 1.00642
lhand -27.5557 29.4819
lfingers 7.12502
lthumb -0.956785 59.4595
rfemur -9.12723 6.5787 12.7918
rtibia 26.6813
rfoot -16.9752 -3.21456
rtoes 3.91407
lfemur -1.36153 -1.92792 -23.5476
ltibia 13.7518
lfoot -10.4611 3.16217
ltoes -11.7385
720
root 0.138015 17.9636 -0.992526 2.2647 -7.70115 2.70102
lowerback 0.27024 -1.66347 -4.97881
upperback 0.849129 -2.22465 2.00312
thorax 0.99379 -1.16393 4.84504
lowerneck -18.1485 0.60776 -10.4297
upperneck 11.5278 2.41011 6.62894
head 6.24919 1.27157 4.08661
rclavicle -4.31363e-014 7.95139e-016
rhumerus -33.977 -6.5704 -77.1363
rradius 34.4781
rwrist 19.3562
rhand -23.062 7.57702
rfingers 7.12502
rthumb 3.38318 -22.3759
lclavicle -4.31363e-014 7.95139e-016
lhumerus 20.4316 -19.6573 68.6477
lradius 110.556
lwrist 0.954039
lhand -27.496 29.6608
lfingers 7.12502
lthumb -0.899171 59.6387
rfemur -9.15292 6.54971 12.7671
rtibia 26.6564
rfoot -16.9137 -3.27909
rtoes 3.34493
lfemur -1.41874 -1.91099 -23.566
ltibia 13.7732
lfoot -10.4601 3.13799
ltoes -11.8058
